<?xml version="1.0" encoding="us-ascii" standalone="no"?><svg xmlns="http://www.w3.org/2000/svg" xmlns:xlink="http://www.w3.org/1999/xlink" contentStyleType="text/css" height="1506px" preserveAspectRatio="none" style="width:1909px;height:1506px;background:#FFFFFF;" version="1.1" viewBox="0 0 1909 1506" width="1909.5px" zoomAndPan="magnify"><defs/><g><text fill="#000000" font-family="sans-serif" font-size="21" font-weight="bold" lengthAdjust="spacing" textLength="456" x="716.625" y="36.7998">Chatbot WhatsApp com Upload de Arquivos</text><text fill="#000000" font-family="sans-serif" font-size="21" font-weight="bold" lengthAdjust="spacing" textLength="6" x="941.625" y="63.2139">&#160;</text><!--cluster AWS--><g id="cluster_AWS"><rect fill="none" height="998.25" rx="3.75" ry="3.75" style="stroke:#181818;stroke-width:1.5;" width="1723.5" x="10.5" y="392.5781"/><text fill="#000000" font-family="sans-serif" font-size="21" font-weight="bold" lengthAdjust="spacing" textLength="46.5" x="849" y="417.3779">AWS</text></g><!--cluster VPC--><g id="cluster_VPC"><rect fill="none" height="692.25" rx="3.75" ry="3.75" style="stroke:#181818;stroke-width:1.5;" width="1651.5" x="46.5" y="527.5781"/><text fill="#000000" font-family="sans-serif" font-size="21" font-weight="bold" lengthAdjust="spacing" textLength="42" x="851.25" y="552.3779">VPC</text></g><!--cluster PublicSubnet--><g id="cluster_PublicSubnet"><rect fill="none" height="135" rx="3.75" ry="3.75" style="stroke:#181818;stroke-width:1.5;" width="327" x="829.5" y="593.5781"/><text fill="#000000" font-family="sans-serif" font-size="21" font-weight="bold" lengthAdjust="spacing" textLength="180" x="903" y="618.3779">Sub-rede P&#250;blica</text></g><!--cluster PrivateSubnet--><g id="cluster_PrivateSubnet"><rect fill="none" height="419.25" rx="3.75" ry="3.75" style="stroke:#181818;stroke-width:1.5;" width="1579.5" x="82.5" y="764.5781"/><text fill="#000000" font-family="sans-serif" font-size="21" font-weight="bold" lengthAdjust="spacing" textLength="183" x="780.75" y="789.3779">Sub-rede Privada</text></g><!--cluster Cluster--><g id="cluster_Cluster"><rect fill="none" height="317.25" rx="3.75" ry="3.75" style="stroke:#181818;stroke-width:1.5;" width="1326" x="300" y="830.5781"/><text fill="#000000" font-family="sans-serif" font-size="21" font-weight="bold" lengthAdjust="spacing" textLength="211.5" x="857.25" y="855.3779">ECS Fargate Cluster</text></g><!--entity APIGateway--><g id="elem_APIGateway"><rect fill="#F8E7C0" height="56.4141" rx="3.75" ry="3.75" style="stroke:#181818;stroke-width:0.75;" width="231" x="877.5" y="446.5781"/><text fill="#000000" font-family="sans-serif" font-size="21" lengthAdjust="spacing" textLength="201" x="892.5" y="483.3779">Amazon API Gateway</text></g><!--entity DB--><g id="elem_DB"><path d="M1194.75,1258.8281 C1194.75,1243.8281 1263,1243.8281 1263,1243.8281 C1263,1243.8281 1331.25,1243.8281 1331.25,1258.8281 L1331.25,1351.5703 C1331.25,1366.5703 1263,1366.5703 1263,1366.5703 C1263,1366.5703 1194.75,1366.5703 1194.75,1351.5703 L1194.75,1258.8281 " fill="#FFFFCC" style="stroke:#181818;stroke-width:0.75;"/><path d="M1194.75,1258.8281 C1194.75,1273.8281 1263,1273.8281 1263,1273.8281 C1263,1273.8281 1331.25,1273.8281 1331.25,1258.8281 " fill="none" style="stroke:#181818;stroke-width:0.75;"/><text fill="#000000" font-family="sans-serif" font-size="21" lengthAdjust="spacing" textLength="6" x="1209.75" y="1301.6279">&#160;</text><text fill="#000000" font-family="sans-serif" font-size="21" lengthAdjust="spacing" textLength="106.5" x="1209.75" y="1328.042">DynamoDB</text><text fill="#000000" font-family="sans-serif" font-size="21" lengthAdjust="spacing" textLength="6" x="1209.75" y="1354.4561">&#160;</text></g><!--entity SNS--><g id="elem_SNS"><rect fill="#E9DAF9" height="56.4141" rx="3.75" ry="3.75" style="stroke:#181818;stroke-width:0.75;" width="151.5" x="656.25" y="1276.8281"/><text fill="#000000" font-family="sans-serif" font-size="21" lengthAdjust="spacing" textLength="121.5" x="671.25" y="1313.6279">Amazon SNS</text></g><!--entity S3--><g id="elem_S3"><rect fill="#F1F1F1" height="56.4141" rx="52.5" ry="52.5" style="stroke:#181818;stroke-width:0.75;" width="136.5" x="924.75" y="1276.8281"/><text fill="#000000" font-family="sans-serif" font-size="21" lengthAdjust="spacing" textLength="106.5" x="939.75" y="1313.6279">Amazon S3</text></g><!--entity LoadBalancer--><g id="elem_LoadBalancer"><rect fill="#F8E7C0" height="56.4141" rx="3.75" ry="3.75" style="stroke:#181818;stroke-width:0.75;" width="277.5" x="854.25" y="647.5781"/><text fill="#000000" font-family="sans-serif" font-size="21" lengthAdjust="spacing" textLength="247.5" x="869.25" y="684.3779">Application Load Balancer</text></g><!--entity Redis--><g id="elem_Redis"><rect fill="#F1F1F1" height="82.8281" rx="52.5" ry="52.5" style="stroke:#181818;stroke-width:0.75;" width="165" x="106.5" y="1046.5781"/><text fill="#000000" font-family="sans-serif" font-size="21" lengthAdjust="spacing" textLength="135" x="121.5" y="1083.3779">Amazon Redis</text><text fill="#000000" font-family="sans-serif" font-size="21" lengthAdjust="spacing" textLength="112.5" x="121.5" y="1109.792">ElastiCache</text></g><!--entity RouterApp--><g id="elem_RouterApp"><rect fill="#C2F0FF" height="71.4141" rx="3.75" ry="3.75" style="stroke:#181818;stroke-width:0.75;" width="160.5" x="912.75" y="884.5781"/><rect fill="#C2F0FF" height="15" style="stroke:#181818;stroke-width:0.75;" width="22.5" x="1043.25" y="892.0781"/><rect fill="#C2F0FF" height="3" style="stroke:#181818;stroke-width:0.75;" width="6" x="1040.25" y="895.0781"/><rect fill="#C2F0FF" height="3" style="stroke:#181818;stroke-width:0.75;" width="6" x="1040.25" y="901.0781"/><text fill="#000000" font-family="sans-serif" font-size="21" lengthAdjust="spacing" textLength="100.5" x="935.25" y="936.3779">router-app</text></g><!--entity ChatbotApp--><g id="elem_ChatbotApp"><rect fill="#C2F0FF" height="71.4141" rx="3.75" ry="3.75" style="stroke:#181818;stroke-width:0.75;" width="174" x="1428" y="1051.8281"/><rect fill="#C2F0FF" height="15" style="stroke:#181818;stroke-width:0.75;" width="22.5" x="1572" y="1059.3281"/><rect fill="#C2F0FF" height="3" style="stroke:#181818;stroke-width:0.75;" width="6" x="1569" y="1062.3281"/><rect fill="#C2F0FF" height="3" style="stroke:#181818;stroke-width:0.75;" width="6" x="1569" y="1068.3281"/><text fill="#000000" font-family="sans-serif" font-size="21" lengthAdjust="spacing" textLength="114" x="1450.5" y="1103.6279">chatbot-app</text></g><!--entity CacheManagerApp--><g id="elem_CacheManagerApp"><rect fill="#C2F0FF" height="71.4141" rx="3.75" ry="3.75" style="stroke:#181818;stroke-width:0.75;" width="252" x="324" y="1051.8281"/><rect fill="#C2F0FF" height="15" style="stroke:#181818;stroke-width:0.75;" width="22.5" x="546" y="1059.3281"/><rect fill="#C2F0FF" height="3" style="stroke:#181818;stroke-width:0.75;" width="6" x="543" y="1062.3281"/><rect fill="#C2F0FF" height="3" style="stroke:#181818;stroke-width:0.75;" width="6" x="543" y="1068.3281"/><text fill="#000000" font-family="sans-serif" font-size="21" lengthAdjust="spacing" textLength="192" x="346.5" y="1103.6279">cache-manager-app</text></g><!--entity NotificationApp--><g id="elem_NotificationApp"><rect fill="#C2F0FF" height="71.4141" rx="3.75" ry="3.75" style="stroke:#181818;stroke-width:0.75;" width="205.5" x="629.25" y="1051.8281"/><rect fill="#C2F0FF" height="15" style="stroke:#181818;stroke-width:0.75;" width="22.5" x="804.75" y="1059.3281"/><rect fill="#C2F0FF" height="3" style="stroke:#181818;stroke-width:0.75;" width="6" x="801.75" y="1062.3281"/><rect fill="#C2F0FF" height="3" style="stroke:#181818;stroke-width:0.75;" width="6" x="801.75" y="1068.3281"/><text fill="#000000" font-family="sans-serif" font-size="21" lengthAdjust="spacing" textLength="145.5" x="651.75" y="1103.6279">notification-app</text></g><!--entity FileStorageApp--><g id="elem_FileStorageApp"><rect fill="#C2F0FF" height="71.4141" rx="3.75" ry="3.75" style="stroke:#181818;stroke-width:0.75;" width="210" x="888" y="1051.8281"/><rect fill="#C2F0FF" height="15" style="stroke:#181818;stroke-width:0.75;" width="22.5" x="1068" y="1059.3281"/><rect fill="#C2F0FF" height="3" style="stroke:#181818;stroke-width:0.75;" width="6" x="1065" y="1062.3281"/><rect fill="#C2F0FF" height="3" style="stroke:#181818;stroke-width:0.75;" width="6" x="1065" y="1068.3281"/><text fill="#000000" font-family="sans-serif" font-size="21" lengthAdjust="spacing" textLength="150" x="910.5" y="1103.6279">file-storage-app</text></g><!--entity DataStorageApp--><g id="elem_DataStorageApp"><rect fill="#C2F0FF" height="71.4141" rx="3.75" ry="3.75" style="stroke:#181818;stroke-width:0.75;" width="225" x="1150.5" y="1051.8281"/><rect fill="#C2F0FF" height="15" style="stroke:#181818;stroke-width:0.75;" width="22.5" x="1345.5" y="1059.3281"/><rect fill="#C2F0FF" height="3" style="stroke:#181818;stroke-width:0.75;" width="6" x="1342.5" y="1062.3281"/><rect fill="#C2F0FF" height="3" style="stroke:#181818;stroke-width:0.75;" width="6" x="1342.5" y="1068.3281"/><text fill="#000000" font-family="sans-serif" font-size="21" lengthAdjust="spacing" textLength="165" x="1173" y="1103.6279">data-storage-app</text></g><!--entity User--><g id="elem_User"><ellipse cx="993" cy="105.3281" fill="#F1F1F1" rx="12" ry="12" style="stroke:#181818;stroke-width:0.75;"/><path d="M993,117.3281 L993,157.8281 M973.5,129.3281 L1012.5,129.3281 M993,157.8281 L973.5,180.3281 M993,157.8281 L1012.5,180.3281 " fill="none" style="stroke:#181818;stroke-width:0.75;"/><text fill="#000000" font-family="sans-serif" font-size="21" lengthAdjust="spacing" textLength="66" x="960" y="204.3779">Cliente</text></g><!--entity WhatsApp--><g id="elem_WhatsApp"><rect fill="#C9FFC9" height="56.4141" rx="3.75" ry="3.75" style="stroke:#181818;stroke-width:0.75;" width="226.5" x="879.75" y="299.5781"/><text fill="#000000" font-family="sans-serif" font-size="21" lengthAdjust="spacing" textLength="196.5" x="894.75" y="336.3779">WhatsApp Cloud API</text></g><!--entity IBMWatson--><g id="elem_IBMWatson"><rect fill="#FFE0E0" height="56.4141" rx="3.75" ry="3.75" style="stroke:#181818;stroke-width:0.75;" width="142.5" x="1758.75" y="1276.8281"/><text fill="#000000" font-family="sans-serif" font-size="21" lengthAdjust="spacing" textLength="112.5" x="1773.75" y="1313.6279">IBM Watson</text></g><!--entity Others--><g id="elem_Others"><ellipse cx="732" cy="1476.3281" fill="#F1F1F1" rx="12" ry="12" style="stroke:#181818;stroke-width:0.75;"/></g><g id="elem_GMN6"><path d="M798,1456.8281 L798,1470.3281 L745.86,1476.3281 L798,1482.3281 L798,1496.3555 A0,0 0 0 0 798,1496.3555 L1173,1496.3555 A0,0 0 0 0 1173,1496.3555 L1173,1471.8281 L1158,1456.8281 L798,1456.8281 A0,0 0 0 0 798,1456.8281 " fill="#FEFFDD" style="stroke:#181818;stroke-width:0.75;"/><path d="M1158,1456.8281 L1158,1471.8281 L1173,1471.8281 L1158,1456.8281 " fill="#FEFFDD" style="stroke:#181818;stroke-width:0.75;"/><text fill="#000000" font-family="sans-serif" font-size="19.5" lengthAdjust="spacing" textLength="343.5" x="807" y="1484.5708">Qualquer sistema pode reagir ao evento</text></g><!--link User to WhatsApp--><g id="link_User_WhatsApp"><path d="M993,210.0281 C993,240.1331 993,266.5781 993,290.3981 " fill="none" id="User-to-WhatsApp" style="stroke:#181818;stroke-width:1.5;"/><polygon fill="#181818" points="993,299.3981,999,285.8981,993,291.8981,987,285.8981,993,299.3981" style="stroke:#181818;stroke-width:1.5;"/></g><!--link WhatsApp to APIGateway--><g id="link_WhatsApp_APIGateway"><path d="M993,356.6681 C993,382.2431 993,411.4181 993,437.1281 " fill="none" id="WhatsApp-to-APIGateway" style="stroke:#181818;stroke-width:1.5;"/><polygon fill="#181818" points="993,446.1281,999,432.6281,993,438.6281,987,432.6281,993,446.1281" style="stroke:#181818;stroke-width:1.5;"/></g><!--link APIGateway to LoadBalancer--><g id="link_APIGateway_LoadBalancer"><path d="M993,503.6981 C993,541.3931 993,600.2831 993,638.1581 " fill="none" id="APIGateway-to-LoadBalancer" style="stroke:#181818;stroke-width:1.5;"/><polygon fill="#181818" points="993,647.1581,999,633.6581,993,639.6581,987,633.6581,993,647.1581" style="stroke:#181818;stroke-width:1.5;"/></g><!--link LoadBalancer to RouterApp--><g id="link_LoadBalancer_RouterApp"><path d="M993,704.8181 C993,748.9781 993,827.1281 993,875.5781 " fill="none" id="LoadBalancer-to-RouterApp" style="stroke:#181818;stroke-width:1.5;"/><polygon fill="#181818" points="993,884.5781,999,871.0781,993,877.0781,987,871.0781,993,884.5781" style="stroke:#181818;stroke-width:1.5;"/></g><!--link RouterApp to CacheManagerApp--><g id="link_RouterApp_CacheManagerApp"><path d="M912.3,946.4981 C820.125,974.3681 677.2242,1017.5864 572.9292,1049.1464 " fill="none" id="RouterApp-to-CacheManagerApp" style="stroke:#181818;stroke-width:1.5;"/><polygon fill="#181818" points="564.315,1051.7531,578.9742,1053.5859,571.4935,1049.5809,575.4986,1042.1003,564.315,1051.7531" style="stroke:#181818;stroke-width:1.5;"/></g><!--link RouterApp to NotificationApp--><g id="link_RouterApp_NotificationApp"><path d="M937.65,956.9081 C893.205,984.8831 838.7364,1019.1484 794.4414,1047.0334 " fill="none" id="RouterApp-to-NotificationApp" style="stroke:#181818;stroke-width:1.5;"/><polygon fill="#181818" points="786.825,1051.8281,801.4462,1049.7136,793.172,1047.8325,795.0531,1039.5583,786.825,1051.8281" style="stroke:#181818;stroke-width:1.5;"/></g><!--link RouterApp to FileStorageApp--><g id="link_RouterApp_FileStorageApp"><path d="M993,956.9081 C993,984.7781 993,1014.6881 993,1042.5431 " fill="none" id="RouterApp-to-FileStorageApp" style="stroke:#181818;stroke-width:1.5;"/><polygon fill="#181818" points="993,1051.5431,999,1038.0431,993,1044.0431,987,1038.0431,993,1051.5431" style="stroke:#181818;stroke-width:1.5;"/></g><!--link RouterApp to DataStorageApp--><g id="link_RouterApp_DataStorageApp"><path d="M1050.255,956.9081 C1096.23,984.8831 1152.7716,1019.2646 1198.5966,1047.1496 " fill="none" id="RouterApp-to-DataStorageApp" style="stroke:#181818;stroke-width:1.5;"/><polygon fill="#181818" points="1206.285,1051.8281,1197.8714,1039.6848,1199.878,1047.9294,1191.6334,1049.936,1206.285,1051.8281" style="stroke:#181818;stroke-width:1.5;"/></g><!--link RouterApp to ChatbotApp--><g id="link_RouterApp_ChatbotApp"><path d="M1073.37,945.3581 C1156.17,969.6281 1288.845,1009.2431 1402.5,1046.5781 C1410.765,1049.2931 1410.831,1049.2707 1419.411,1052.2107 " fill="none" id="RouterApp-to-ChatbotApp" style="stroke:#181818;stroke-width:1.5;"/><polygon fill="#181818" points="1427.925,1055.1281,1417.0989,1045.076,1420.83,1052.697,1413.209,1056.4281,1427.925,1055.1281" style="stroke:#181818;stroke-width:1.5;"/></g><!--link CacheManagerApp to Redis--><g id="link_CacheManagerApp_Redis"><path d="M323.85,1087.8281 C306.435,1087.8281 298.005,1087.8281 280.575,1087.8281 " fill="none" id="CacheManagerApp-to-Redis" style="stroke:#181818;stroke-width:1.5;"/><polygon fill="#181818" points="271.575,1087.8281,285.075,1093.8281,279.075,1087.8281,285.075,1081.8281,271.575,1087.8281" style="stroke:#181818;stroke-width:1.5;"/></g><!--link NotificationApp to SNS--><g id="link_NotificationApp_SNS"><path d="M732,1124.2631 C732,1166.7731 732,1228.6181 732,1267.4081 " fill="none" id="NotificationApp-to-SNS" style="stroke:#181818;stroke-width:1.5;"/><polygon fill="#181818" points="732,1276.4081,738,1262.9081,732,1268.9081,726,1262.9081,732,1276.4081" style="stroke:#181818;stroke-width:1.5;"/></g><!--link FileStorageApp to S3--><g id="link_FileStorageApp_S3"><path d="M993,1124.2631 C993,1166.7731 993,1228.6181 993,1267.4081 " fill="none" id="FileStorageApp-to-S3" style="stroke:#181818;stroke-width:1.5;"/><polygon fill="#181818" points="993,1276.4081,999,1262.9081,993,1268.9081,987,1262.9081,993,1276.4081" style="stroke:#181818;stroke-width:1.5;"/></g><!--link DataStorageApp to DB--><g id="link_DataStorageApp_DB"><path d="M1263,1124.2631 C1263,1156.5581 1263,1196.2181 1263,1234.7381 " fill="none" id="DataStorageApp-to-DB" style="stroke:#181818;stroke-width:1.5;"/><polygon fill="#181818" points="1263,1243.7381,1269,1230.2381,1263,1236.2381,1257,1230.2381,1263,1243.7381" style="stroke:#181818;stroke-width:1.5;"/></g><!--link ChatbotApp to IBMWatson--><g id="link_ChatbotApp_IBMWatson"><path d="M1566.315,1124.2631 C1628.895,1166.8931 1725.9152,1232.9586 1782.7652,1271.6586 " fill="none" id="ChatbotApp-to-IBMWatson" style="stroke:#181818;stroke-width:1.5;"/><polygon fill="#181818" points="1790.205,1276.7231,1782.4217,1264.1664,1784.0052,1272.5027,1775.669,1274.0862,1790.205,1276.7231" style="stroke:#181818;stroke-width:1.5;"/></g><!--reverse link SNS to Others--><g id="link_SNS_Others"><path d="M732,1343.5631 C732,1380.6581 732,1435.8431 732,1462.5881 " fill="none" id="SNS-backto-Others" style="stroke:#181818;stroke-width:1.5;stroke-dasharray:7.0,7.0;"/><polygon fill="#181818" points="732,1334.5631,726,1348.0631,732,1342.0631,738,1348.0631,732,1334.5631" style="stroke:#181818;stroke-width:1.5;"/></g><!--SRC=[ZLLDZzem4BtpAwPfhrbjkwhQbTfAV6GH4WifYA9AUnaS1oo5EEiuLDkAFzPh_rZ7TZ2GtMZ9WSHlthoCyPj9oJ3ZyFxgO-VDk-4iYYRm5OAtx3PDsMr0s7JMdGmZ2wQV-ITsRS3UUE4WzY6zJbC3_Op6u-dIyUXYp83nOXQF7PFV9fXQnLaqg6dycfDSHmjD9GJz3UgLrB2aUzaj2c1o2uiYavX0mg6h7Ykna-L37dI0Blk3J4j5gPdWkUO1O0cBaYiRKvnfpDT6salsCrabq8r7bkfXj_DcrgXt3qjYoDooQUbMOBPWoKmePfXW2LEzuQgqWLng3agiDzekpVMzmkonuWfAKMg-HIWaxKfnN0i5A87lQ0lIqdcUM8NEOPidHNMNS_iokiCVBzxWRF4tbKdRX25g_WkVN4eygfTG7sjB_e-u7voBdqRdrIfKd6gF__rTPOAX5OyhyqondEj6RhEweZ1PMb29OtEuFSmmPrnP7OCSW9VAXFthTIcnmwGkopnhVabTKNyETwZMH2UVL7H8hgBw-OLaQm6vBMHEHmU1aXNnGYmAcpUpIsCli0tpMZfp_lVvTJzOVrwKZsp3motck3wfec_GUmTUB4Nc4sbzHbvfSW9Uh9IAZ8SbDIcztolT4JXtsCL22Mfy9ZGWy5MX_JEabl6DCkE9eBaIPLXgOVymTu06XdRpxJj-PQfROSa1WeTyy9JZLWvw3svk37fmc8vmL7lUhlE9wsowGpqvEsqLpsySzUR0y4mp_Y0Cl_dXvYD-sfdeSHRu-CbuC8pJHlISi-uqB6_outznzBqXDFpNmcfuguLrxfiMqhadsgholUK9_g7PCQ4o-pHUy9HcAuG9KUZSFA7XS1VtXzNqhGqFUiSAZfrlG_xBund68r-khWwVdFr_]--></g></svg>